<?xml version="1.0" encoding="UTF-8" standalone="no"?>
<!DOCTYPE svg PUBLIC "-//W3C//DTD SVG 20010904//EN"
              "http://www.w3.org/TR/2001/REC-SVG-20010904/DTD/svg10.dtd">

<svg xmlns="http://www.w3.org/2000/svg"
     width="43.3494mm" height="43.3494mm"
     viewBox="0 0 512 512">
  <path id="Sélection"
        fill="black" stroke="black" stroke-width="1"
        d="M 82.00,439.00
           C 82.00,439.00 82.00,382.00 82.00,382.00
             82.00,370.40 81.23,355.07 83.31,344.00
             86.48,327.11 97.71,311.63 112.00,302.30
             120.73,296.60 129.77,293.86 140.00,292.83
             142.88,292.54 145.00,291.90 148.00,292.20
             148.00,292.20 166.00,297.99 166.00,297.99
             177.77,301.26 181.06,301.14 193.00,301.00
             199.88,300.92 209.47,298.73 216.00,296.48
             220.98,294.77 224.53,292.11 230.00,292.08
             262.42,291.87 293.95,319.95 294.00,353.00
             294.00,353.00 294.00,506.00 294.00,506.00
             294.00,506.00 311.00,503.00 311.00,503.00
             311.00,503.00 311.00,394.00 311.00,394.00
             311.00,373.71 313.08,349.14 306.97,330.00
             302.51,316.01 297.22,311.53 290.00,300.00
             300.74,296.96 307.69,292.11 320.00,292.18
             324.36,292.20 336.50,296.77 346.00,296.99
             357.67,297.25 369.81,291.87 376.00,292.32
             407.59,294.64 434.95,319.35 435.00,352.00
             435.00,352.00 435.00,435.00 435.00,435.00
             441.53,430.32 450.29,419.57 455.35,413.00
             468.62,395.78 478.08,380.83 487.02,361.00
             528.36,269.35 512.96,165.35 447.57,89.00
             432.01,70.83 413.12,55.26 393.00,42.41
             302.29,-15.50 182.37,-9.68 98.00,57.45
             76.64,74.44 60.43,92.32 45.33,115.00
             24.66,146.06 12.02,178.18 5.92,215.00
             5.92,215.00 3.00,240.00 3.00,240.00
             2.83,255.27 2.40,270.84 4.29,286.00
             9.25,325.80 23.18,363.76 45.66,397.00
             54.61,410.24 69.19,429.83 82.00,439.00 Z
           M 180.00,151.30
           C 189.37,150.37 201.24,151.08 210.00,154.67
             221.06,159.19 230.05,165.51 237.48,175.00
             257.72,200.83 253.06,238.34 229.00,259.83
             223.40,264.83 216.22,269.30 209.00,271.49
             202.46,273.48 192.81,275.23 186.00,274.96
             177.49,274.63 167.63,272.45 160.00,268.63
             122.06,249.66 114.41,198.93 144.17,169.17
             154.70,158.64 165.61,153.97 180.00,151.30 Z
           M 337.00,169.32
           C 356.44,167.19 374.58,171.36 387.68,187.00
             412.96,217.20 397.92,266.49 358.00,273.83
             345.43,276.14 332.30,274.76 321.00,268.49
             287.20,249.75 284.76,202.52 315.00,179.34
             321.87,174.07 328.60,171.20 337.00,169.32 Z" />
</svg>
