<?xml version="1.0" standalone="no"?>
<!DOCTYPE svg PUBLIC "-//W3C//DTD SVG 20010904//EN"
 "http://www.w3.org/TR/2001/REC-SVG-20010904/DTD/svg10.dtd">
<svg version="1.0" xmlns="http://www.w3.org/2000/svg"
 width="700.000000pt" height="700.000000pt" viewBox="0 0 700.000000 700.000000"
 preserveAspectRatio="xMidYMid meet">
<metadata>
Created by potrace 1.14, written by Peter Selinger 2001-2017
</metadata>
<g transform="translate(0.000000,700.000000) scale(0.100000,-0.100000)"
fill="#000000" stroke="none">
<path d="M3279 6966 c-2 -2 -38 -6 -79 -10 -91 -8 -133 -13 -270 -32 -73 -11
-317 -67 -414 -95 -570 -169 -1059 -459 -1471 -873 -216 -216 -353 -393 -522
-671 -203 -335 -363 -749 -429 -1115 -3 -14 -7 -32 -9 -40 -4 -14 -16 -111
-31 -240 -3 -30 -9 -82 -14 -115 -9 -65 -5 -533 5 -630 7 -69 44 -306 50 -314
1 -3 6 -24 9 -45 10 -60 43 -188 83 -316 134 -436 369 -862 680 -1231 74 -88
239 -249 255 -249 5 0 8 249 7 593 0 325 2 615 6 642 27 201 111 372 256 517
134 134 297 216 479 242 136 19 140 19 270 -24 117 -38 206 -62 283 -76 56
-10 272 -6 333 6 96 19 198 49 274 80 65 27 80 29 163 25 381 -16 735 -322
807 -695 7 -37 11 -413 11 -1125 0 -588 2 -1078 5 -1088 3 -9 9 -15 14 -12 4
2 25 7 46 10 22 3 50 8 64 11 14 2 39 7 55 10 17 2 38 7 48 10 16 5 17 56 18
867 0 474 1 919 1 990 0 116 -8 281 -17 326 -2 10 -6 36 -9 57 -22 136 -74
258 -174 407 -46 70 -83 129 -81 131 9 7 236 85 268 91 78 16 148 13 246 -10
55 -13 125 -29 155 -34 50 -9 166 -7 215 3 11 2 72 16 135 29 122 27 167 27
279 1 281 -65 528 -277 616 -531 13 -37 27 -81 31 -98 4 -16 9 -277 11 -580 2
-302 4 -590 6 -640 l2 -90 86 85 c199 198 421 514 572 815 130 258 251 603
302 860 15 74 35 201 41 255 3 25 7 51 9 58 18 54 26 504 13 672 -48 584 -247
1158 -571 1645 -54 81 -193 272 -207 285 -3 3 -30 34 -60 70 -54 64 -243 256
-310 315 -410 360 -933 636 -1445 763 -135 34 -234 55 -315 67 -20 3 -45 7
-55 9 -11 2 -56 7 -100 11 -44 4 -89 10 -100 12 -23 6 -520 14 -526 9z m-539
-2052 c161 -31 313 -114 436 -238 282 -285 316 -729 82 -1075 -49 -73 -177
-192 -253 -237 -125 -73 -278 -112 -440 -112 -56 -1 -122 4 -146 10 -24 5 -54
12 -67 14 -248 48 -497 282 -582 548 -45 141 -50 350 -10 486 85 296 309 515
611 594 106 28 252 32 369 10z m2175 -249 c243 -50 436 -229 514 -476 26 -83
32 -127 32 -219 -2 -126 -20 -208 -73 -320 -99 -208 -256 -332 -488 -385 -101
-23 -284 -14 -383 18 -448 145 -632 676 -373 1077 113 174 316 305 501 323 66
6 194 -2 270 -18z"/>
</g>
</svg>
